<svg xmlns="http://www.w3.org/2000/svg" fill="none" viewBox="0 0 24 24">
  <path fill="currentColor" d="M16.5 19.5a3 3 0 1 0 0-6 3 3 0 0 0 0 6"/>
  <path fill="currentColor" fill-rule="evenodd" d="M16.5 14.25a2.25 2.25 0 1 0 0 4.5 2.25 2.25 0 0 0 0-4.5m-3.75 2.25a3.75 3.75 0 1 1 7.5 0 3.75 3.75 0 0 1-7.5 0" clip-rule="evenodd"/>
  <path fill="currentColor" d="M7.5 19.5a3 3 0 1 0 0-6 3 3 0 0 0 0 6"/>
  <path fill="currentColor" fill-rule="evenodd" d="M7.5 14.25a2.25 2.25 0 1 0 0 4.5 2.25 2.25 0 0 0 0-4.5M3.75 16.5a3.75 3.75 0 1 1 7.5 0 3.75 3.75 0 0 1-7.5 0" clip-rule="evenodd"/>
  <path fill="currentColor" d="M7.5 10.5a3 3 0 1 0 0-6 3 3 0 0 0 0 6"/>
  <path fill="currentColor" fill-rule="evenodd" d="M7.5 5.25a2.25 2.25 0 1 0 0 4.5 2.25 2.25 0 0 0 0-4.5M3.75 7.5a3.75 3.75 0 1 1 7.5 0 3.75 3.75 0 0 1-7.5 0m9 0a.75.75 0 0 1 .75-.75h6a.75.75 0 0 1 0 1.5h-6a.75.75 0 0 1-.75-.75" clip-rule="evenodd"/>
  <path fill="currentColor" fill-rule="evenodd" d="M16.5 3.75a.75.75 0 0 1 .75.75v6a.75.75 0 0 1-1.5 0v-6a.75.75 0 0 1 .75-.75" clip-rule="evenodd"/>
</svg>
